<?xml version="1.0" encoding="UTF-8"?>
<svg version="1.1" xmlns="http://www.w3.org/2000/svg" width="1024" height="1024">
<path d="M0 0 C337.92 0 675.84 0 1024 0 C1024 337.92 1024 675.84 1024 1024 C686.08 1024 348.16 1024 0 1024 C0 686.08 0 348.16 0 0 Z " fill="#F46935" transform="translate(0,0)"/>
<path d="M0 0 C2.08368797 -0.00571933 4.16737281 -0.01268955 6.25105286 -0.02079773 C11.85257915 -0.03857368 17.45394746 -0.03759013 23.05549335 -0.03185534 C27.75901633 -0.02874014 32.46250997 -0.03488177 37.16602874 -0.04089409 C48.27721511 -0.05488725 59.38832452 -0.05342221 70.49951172 -0.04199219 C81.90061467 -0.03052192 93.30148206 -0.04458042 104.70255399 -0.07138866 C114.54781775 -0.09365802 124.39300819 -0.10015772 134.23829532 -0.09431225 C140.09342265 -0.09096752 145.94839918 -0.09319002 151.80350494 -0.11056328 C157.31627801 -0.12621031 162.82870658 -0.12188336 168.3414669 -0.10325813 C170.344293 -0.0996205 172.34714567 -0.1025362 174.34994698 -0.11314392 C212.86805748 -0.30129893 250.21372037 11.83287989 279.47167969 37.40405273 C280.42429687 38.23549805 281.37691406 39.06694336 282.35839844 39.92358398 C312.59060365 66.75984286 333.80865048 104.70792918 337.47167969 145.40405273 C337.59304596 148.92698224 337.5798094 152.44211754 337.54199219 155.96655273 C337.53437866 157.33650391 337.53437866 157.33650391 337.52661133 158.73413086 C337.5135154 160.95752923 337.49512302 163.18074355 337.47167969 165.40405273 C338.07353529 165.40128736 338.67539089 165.39852198 339.29548454 165.3956728 C354.02269812 165.32906676 368.74990273 165.27960528 383.47723198 165.24861622 C390.59962287 165.23322714 397.72191247 165.21229246 404.84423828 165.17773438 C411.06087036 165.14758548 417.27742899 165.12842012 423.49413216 165.12178725 C426.77786797 165.11791751 430.06134806 165.10735525 433.34502792 165.08686256 C450.73844175 164.98272752 467.93296395 165.16930946 484.53417969 171.02905273 C485.26258057 171.27993652 485.99098145 171.53082031 486.74145508 171.78930664 C503.8687286 177.96212711 518.28695346 187.97335497 531.47167969 200.40405273 C532.56222656 201.38051758 532.56222656 201.38051758 533.67480469 202.37670898 C555.8744809 223.09906861 568.25482985 254.52579416 570.47167969 284.40405273 C570.61465606 288.62425433 570.62866802 292.84133989 570.6328125 297.0637207 C570.6377774 298.29126572 570.64274231 299.51881073 570.64785767 300.78355408 C570.65988544 304.12512321 570.66740382 307.46663043 570.67186832 310.80821371 C570.67482027 312.90732296 570.67892896 315.00642701 570.6833725 317.1055336 C570.69702011 323.70605689 570.7066984 330.30656797 570.71057439 336.90710437 C570.7150395 344.46449081 570.73252661 352.02169499 570.76157498 359.5790261 C570.78337795 365.46059928 570.79328857 371.34212192 570.79461551 377.22373497 C570.79565095 380.71750514 570.80128233 384.21110344 570.81943512 387.70483017 C571.01016395 426.67243581 564.32207449 463.32084368 536.47167969 492.40405273 C535.68792969 493.41467773 534.90417969 494.42530273 534.09667969 495.46655273 C527.49786187 502.8509441 518.92693171 509.258097 510.47167969 514.40405273 C509.81167969 514.40405273 509.15167969 514.40405273 508.47167969 514.40405273 C508.48056213 515.03917282 508.48944458 515.67429291 508.49859619 516.32865906 C508.58775709 522.99700837 508.64769649 529.66518571 508.69140625 536.33398438 C508.71140159 538.81582529 508.73860694 541.29761982 508.7734375 543.77929688 C508.82248932 547.36657221 508.84477027 550.95321952 508.86230469 554.54077148 C508.88294983 555.63298508 508.90359497 556.72519867 508.92486572 557.85050964 C508.92854431 570.75823309 505.27271319 582.09392076 496.43652344 591.59155273 C491.3267186 596.49408154 486.22611151 599.33922643 479.47167969 601.40405273 C478.5396875 601.69022461 478.5396875 601.69022461 477.58886719 601.98217773 C466.89526838 604.11300554 456.96018776 602.3378843 447.73339844 596.74389648 C441.60813075 592.52465269 436.39229218 587.5713501 431.27246094 582.21264648 C428.47370642 579.40608512 425.55802304 576.82721432 422.56225586 574.23632812 C419.11475639 571.21478386 415.79817276 568.0574958 412.47167969 564.90405273 C410.97960824 563.49507566 409.4874178 562.08622459 407.99511719 560.67749023 C406.86928223 559.61353027 406.86928223 559.61353027 405.72070312 558.52807617 C402.1850838 555.18896543 398.64216696 551.8576801 395.09667969 548.52905273 C394.49210938 547.95993164 393.88753906 547.39081055 393.26464844 546.80444336 C392.06642061 545.67965531 390.85657755 544.56709756 389.63478088 543.46795654 C387.47167969 541.40405273 387.47167969 541.40405273 385.3155365 538.89276123 C380.6493853 533.85374559 377.1772076 530.92835436 370.32483768 530.32240677 C366.31338301 530.17645878 362.32312674 530.24610212 358.31152344 530.34936523 C356.55433739 530.35575408 354.79712666 530.35711073 353.03993225 530.35372925 C348.43122753 530.35557108 343.82509459 530.41334521 339.21704102 530.48699951 C331.87101556 530.59702063 324.52462949 530.62919026 317.17788887 530.64635849 C314.64403667 530.66137619 312.11200859 530.7051401 309.57859802 530.75320435 C295.56349479 530.92011447 281.66589714 528.8948391 268.72167969 523.21655273 C267.69337036 522.77980225 267.69337036 522.77980225 266.64428711 522.33422852 C259.10180661 519.00156535 250.96216783 514.71812355 244.99267578 508.9831543 C242.25770208 506.36473547 241.00770694 505.39395093 237.15527344 505.46655273 C235.33189453 505.93061523 235.33189453 505.93061523 233.47167969 506.40405273 C232.0257078 506.71951321 230.57905516 507.03186495 229.13183594 507.34155273 C226.83022036 507.86921139 224.53061085 508.40488819 222.23144531 508.94311523 C221.47669922 509.11584961 220.72195313 509.28858398 219.94433594 509.46655273 C219.27668213 509.6225293 218.60902832 509.77850586 217.92114258 509.93920898 C210.01784014 511.4390483 202.37024441 511.5108594 194.34545898 511.43481445 C192.34954433 511.42288772 190.35362947 511.4109804 188.35771048 511.39980245 C186.94837286 511.39163001 185.53903901 511.38278335 184.1297096 511.37330127 C178.94613449 511.33855351 173.76274123 511.32255586 168.57905579 511.31765747 C167.82376278 511.31692478 167.06846978 511.31619209 166.2902891 511.3154372 C163.1787626 511.31277516 160.06723599 511.31072855 156.95570886 511.30896163 C148.1501667 511.30318175 139.34551241 511.27937764 130.5402832 511.2019043 C123.52682256 511.14031998 116.51445019 511.11790481 109.5007394 511.14071667 C105.79678978 511.15131193 102.0952244 511.14269731 98.3916378 511.08639145 C81.47220722 509.91161085 81.47220722 509.91161085 66.67648792 516.25926399 C64.67820219 518.47928395 63.07402581 520.88878944 61.47167969 523.40405273 C59.41337585 525.37277222 59.41337585 525.37277222 57.59667969 526.84155273 C54.06044331 529.86539568 50.63420286 532.99236971 47.22167969 536.15405273 C46.66585205 536.66871094 46.11002441 537.18336914 45.53735352 537.71362305 C44.40582093 538.76152557 43.27439222 539.80954026 42.14306641 540.85766602 C35.97856604 546.56113451 29.78660094 552.23454271 23.53417969 557.84155273 C19.07881165 561.83922646 14.6808445 565.89606158 10.28833008 569.96240234 C6.24552506 573.70085268 2.16912114 577.3982579 -1.95019531 581.05249023 C-3.86197728 582.79626712 -5.7095745 584.55896704 -7.54394531 586.38061523 C-17.86838103 596.51114263 -29.3884465 604.00157515 -44.27832031 604.77905273 C-55.27674413 604.5083223 -63.95515339 599.83379257 -71.65332031 592.33374023 C-79.54826396 584.00341367 -82.77539754 575.87003878 -82.47973633 564.48950195 C-82.44699096 562.8439169 -82.41500864 561.19831653 -82.38368225 559.55270386 C-82.3660338 558.68243435 -82.34838535 557.81216484 -82.3302021 556.91552353 C-82.23103039 551.32024885 -82.20689341 545.72406428 -82.17260838 540.12808037 C-82.13832566 535.21705848 -82.07525164 530.30972812 -81.94897461 525.40014648 C-81.82807974 520.64163926 -81.78627658 515.88814047 -81.79704094 511.12817764 C-81.78724586 509.32185592 -81.7493617 507.51544601 -81.68200874 505.71035385 C-81.0840473 496.05243386 -81.0840473 496.05243386 -85.0900383 487.69513702 C-88.9366008 484.61623569 -93.14625219 482.46993951 -97.59213066 480.39302444 C-102.45268343 477.91033935 -106.46437783 473.99446799 -110.52832031 470.40405273 C-111.26260254 469.76814209 -111.26260254 469.76814209 -112.01171875 469.11938477 C-119.32194906 462.7756624 -125.61849792 456.10407679 -131.52832031 448.40405273 C-132.25535156 447.50428711 -132.98238281 446.60452148 -133.73144531 445.67749023 C-146.95020488 428.89983386 -155.8502533 409.14232294 -161.40332031 388.59155273 C-161.59450439 387.88844971 -161.78568848 387.18534668 -161.98266602 386.4609375 C-165.59883248 372.07998679 -165.83132233 357.72475906 -165.8347168 342.99438477 C-165.84235444 340.87512424 -165.85078464 338.75586645 -165.85993958 336.63661194 C-165.88173715 330.91905629 -165.89066386 325.20155407 -165.89576602 319.48396158 C-165.89942809 315.89813399 -165.90567767 312.31232 -165.91276741 308.72649765 C-165.93721377 296.17727809 -165.95030272 283.62809956 -165.95385742 271.07885742 C-165.95748567 259.44609215 -165.98734279 247.81359182 -166.02926201 236.18090737 C-166.06414821 226.14207169 -166.07940904 216.10332303 -166.08010346 206.06442726 C-166.08089024 200.091751 -166.08934982 194.11934504 -166.11810112 188.14673233 C-166.3353494 140.06819062 -166.3353494 140.06819062 -160.52832031 120.40405273 C-160.17685849 119.16087469 -160.17685849 119.16087469 -159.81829643 117.89258194 C-152.63205304 92.64312288 -139.32846096 69.64089236 -121.52832031 50.40405273 C-121.05426758 49.89148926 -120.58021484 49.37892578 -120.09179688 48.85083008 C-101.11324632 28.59816841 -77.01560634 14.32626557 -50.59082031 6.09155273 C-49.86588379 5.86105225 -49.14094727 5.63055176 -48.39404297 5.39306641 C-32.53607664 0.74492407 -16.41135155 -0.04132781 0 0 Z " fill="#002336" transform="translate(319.5283203125,182.595947265625)"/>
<path d="M0 0 C337.92 0 675.84 0 1024 0 C1024 337.92 1024 675.84 1024 1024 C686.08 1024 348.16 1024 0 1024 C0 686.08 0 348.16 0 0 Z M141 108 C140.36529785 108.46792969 139.7305957 108.93585938 139.07666016 109.41796875 C127.78243615 117.84217971 116.90884313 127.03809014 108 138 C107.56719727 138.52045898 107.13439453 139.04091797 106.68847656 139.57714844 C77.90149922 174.20997822 58.76631978 218.444509 58.86857224 264.01362991 C58.8665196 264.87879357 58.86446697 265.74395722 58.86235213 266.63533795 C58.8567132 269.5244236 58.85813553 272.41346111 58.85955811 275.30255127 C58.85697267 277.39900096 58.85395902 279.49545016 58.8505547 281.59189868 C58.84250213 287.34582675 58.8406961 293.09974233 58.83995724 298.85367537 C58.8381036 305.06256919 58.83055462 311.27145658 58.82382202 317.48034668 C58.80954214 331.76286158 58.80371329 346.0453724 58.79913008 360.32789293 C58.7967912 367.39278745 58.79318819 374.45768117 58.7894347 381.52257507 C58.77660023 405.72783417 58.7658819 429.93309283 58.7624321 454.13835526 C58.76221047 455.65692379 58.76198869 457.17549232 58.76176675 458.69406085 C58.76154611 460.21620825 58.76132563 461.73835565 58.7611053 463.26050305 C58.76066276 466.31396818 58.76021564 469.36743331 58.75976562 472.42089844 C58.75965623 473.17797629 58.75954684 473.93505415 58.75943414 474.71507376 C58.75580633 499.2440774 58.73989618 523.77305143 58.71657526 548.30204374 C58.69193874 574.26248662 58.67825745 600.22291259 58.67706418 626.18336749 C58.67689274 629.03731203 58.67667732 631.89125657 58.67642975 634.74520111 C58.67637398 635.44787347 58.67631821 636.15054583 58.67626075 636.87451129 C58.67511351 648.14782894 58.66411928 659.42111605 58.64954269 670.69442342 C58.63512402 682.04252313 58.63222181 693.39057306 58.63998267 704.73868337 C58.64387595 710.87794356 58.64302451 717.0171017 58.62892532 723.15634918 C58.61610667 728.78983564 58.61745322 734.42314421 58.62951604 740.0566307 C58.63145935 742.08162269 58.62845877 744.10662763 58.61967167 746.13160148 C58.54749641 763.90696443 60.42781317 781.21234864 64.6875 798.5 C64.94096191 799.53697021 65.19442383 800.57394043 65.45556641 801.64233398 C69.60615682 817.94715781 76.05059478 833.20948176 84 848 C84.59039062 849.13179687 85.18078125 850.26359375 85.7890625 851.4296875 C94.7945858 868.02284319 106.65397351 882.71585019 120 896 C120.52384277 896.5264209 121.04768555 897.0528418 121.58740234 897.59521484 C161.83430196 937.6391676 217.01333294 954.37298738 272.65527344 954.26069641 C274.8011504 954.26372282 276.94702627 954.26761474 279.09290028 954.27228898 C284.94646476 954.28251498 290.79996762 954.28040098 296.65353703 954.27610838 C302.9837072 954.27363124 309.31386291 954.28266766 315.64402771 954.29014587 C328.03007951 954.3028684 340.41610575 954.30469528 352.80216247 954.30234561 C362.87686924 954.30050808 372.95156966 954.30228218 383.02627563 954.30657005 C384.47722695 954.30717247 385.92817827 954.30777367 387.37912959 954.30837366 C389.56600183 954.30928098 391.75287407 954.31018965 393.9397463 954.31110601 C414.25677228 954.31952822 434.57379588 954.3238764 454.89082336 954.31969929 C455.65574083 954.31954291 456.42065829 954.31938654 457.20875507 954.31922542 C461.08503413 954.31841972 464.96131319 954.31757395 468.83759224 954.31671212 C469.6073341 954.31654103 470.37707595 954.31636994 471.17014332 954.31619367 C472.72674726 954.31584701 474.2833512 954.31549848 475.83995514 954.31514808 C500.04419675 954.30979455 524.2484019 954.31771385 548.45263672 954.33618164 C575.69276712 954.35694183 602.93287494 954.36761654 630.17301369 954.36360615 C633.0830752 954.36321086 635.99313672 954.3628493 638.90319824 954.36250877 C639.61964356 954.36241804 640.33608888 954.36232731 641.07424466 954.36223383 C651.84593341 954.36107239 662.61759921 954.3676816 673.38928223 954.37832069 C685.65575784 954.39042438 697.92217362 954.39159697 710.18865114 954.37953053 C716.43782355 954.37366796 722.68689805 954.3724692 728.93606377 954.38453293 C734.67430057 954.39548081 740.41235879 954.39218395 746.15058756 954.37827124 C748.20905696 954.37564854 750.26754077 954.37791288 752.32599592 954.38600711 C806.18616655 954.58282758 857.89325825 937.82509077 897.859375 900.953125 C899.59341258 899.37097392 901.34699382 897.89053119 903.1875 896.4375 C906.85874127 893.25575756 909.86720732 889.70293694 913 886 C913.83789062 885.04996094 914.67578125 884.09992187 915.5390625 883.12109375 C941.4100088 853.60381365 957.06346658 816.63313284 963 778 C963.25905798 776.44147594 963.25905798 776.44147594 963.52334946 774.85146654 C964.05496874 770.55583754 964.14213407 766.39378321 964.13422108 762.07184792 C964.13657331 761.19161823 964.13892554 760.31138854 964.14134905 759.40448523 C964.14801113 756.45206825 964.14758167 753.49969557 964.14717102 750.54727173 C964.15047142 748.41002599 964.15419736 746.27278088 964.1583125 744.13553655 C964.16832124 738.25939646 964.17204751 732.38326658 964.17470181 726.50711918 C964.17860839 720.1699588 964.18818671 713.83280648 964.19691467 707.49565125 C964.21573853 692.91022434 964.22593553 678.32479842 964.23437535 663.7393624 C964.2385861 656.52413086 964.24380765 649.30890015 964.24905988 642.09366931 C964.26695247 617.37261162 964.28194457 592.65155369 964.28938007 567.93049049 C964.28985482 566.37888387 964.29033071 564.82727724 964.29080774 563.27567061 C964.29104411 562.50624308 964.29128049 561.73681555 964.29152403 560.94407203 C964.29272517 557.04604801 964.29394064 553.14802401 964.29516602 549.25 C964.29552624 548.08965421 964.29552624 548.08965421 964.29589374 546.90586708 C964.30377643 521.85792747 964.32718569 496.81003536 964.35972196 471.76211646 C964.39409351 445.25263916 964.41373819 418.74318961 964.41702431 392.23368967 C964.41744181 389.31785543 964.41792137 386.4020212 964.41844749 383.48618698 C964.41857069 382.76827666 964.41869388 382.05036634 964.4188208 381.31070116 C964.42114421 369.80187447 964.43675638 358.29310331 964.45728934 346.78429635 C964.4776419 335.19166941 964.48264957 323.59912403 964.47351871 312.00648083 C964.46899344 305.7370923 964.47075633 299.46788243 964.49028015 293.19851875 C964.58012319 262.62650576 964.15616458 234.17901699 954 205 C953.61569824 203.87851562 953.61569824 203.87851562 953.22363281 202.734375 C941.43844694 168.90187153 919.53390339 136.88133603 891 115 C890.0409375 114.21367188 889.081875 113.42734375 888.09375 112.6171875 C845.37948323 78.2084726 791.99427657 68.8326221 738.68713379 68.85955811 C736.60282891 68.8569673 734.51852452 68.85395219 732.43422079 68.8505547 C726.76007617 68.84256577 721.08594424 68.84069972 715.41179466 68.83995724 C709.27112878 68.83809247 703.13046927 68.83053832 696.98980713 68.82382202 C682.89125157 68.80959365 668.79270021 68.80372056 654.69413919 68.79913008 C647.71260546 68.79678561 640.73107254 68.79318213 633.74953944 68.7894347 C609.80496381 68.77660894 585.86038862 68.7658876 561.91580963 68.7624321 C560.41616133 68.76221047 558.91651303 68.76198869 557.41686472 68.76176675 C555.91382192 68.76154611 554.41077911 68.76132563 552.9077363 68.7611053 C549.89291795 68.76066277 546.8780996 68.76021565 543.86328125 68.75976562 C542.74205365 68.75960154 542.74205365 68.75960154 541.59817498 68.75943414 C517.37194759 68.75580513 493.14575014 68.73988593 468.91953421 68.71657526 C443.24579727 68.69191734 417.57207743 68.67825657 391.8983283 68.67706418 C389.0742019 68.67689275 386.2500755 68.67667734 383.4259491 68.67642975 C382.38304377 68.6763461 382.38304377 68.6763461 381.31906966 68.67626075 C370.1869613 68.67511572 359.05488401 68.66414115 347.92278611 68.64954269 C336.71247196 68.63509695 325.50219655 68.6322362 314.29187208 68.63998267 C308.2328091 68.64386565 302.17384948 68.64307566 296.1147995 68.62892532 C240.23654923 68.50611488 187.51466058 73.66912016 141 108 Z " fill="#FEFDFA" transform="translate(0,0)"/>
<path d="M0 0 C0.88550276 -0.00311998 1.77100551 -0.00623996 2.68334168 -0.00945449 C5.62084796 -0.01736779 8.5581438 -0.011137 11.49565125 -0.00482178 C13.6139386 -0.00753466 15.73222501 -0.01109726 17.85050964 -0.01544189 C23.58410223 -0.02453441 29.31762257 -0.02103413 35.05121636 -0.01468372 C41.06558944 -0.0096055 47.0799565 -0.01432042 53.09432983 -0.01745605 C63.19605108 -0.02109123 73.29774304 -0.01630924 83.39945984 -0.0067749 C95.05555774 0.00409992 106.71158561 0.0005893 118.3676818 -0.01042771 C128.39518592 -0.01952393 138.42266903 -0.0207742 148.45017594 -0.01555037 C154.43026926 -0.01244236 160.41032974 -0.01198891 166.39042091 -0.01862335 C172.01704535 -0.02442987 177.64358018 -0.02033971 183.27019501 -0.00883484 C185.32720224 -0.00620549 187.38421711 -0.0069236 189.44122124 -0.01136017 C202.98374312 -0.03786029 215.87849346 0.47351874 228.95927429 4.37896729 C229.66584167 4.58924561 230.37240906 4.79952393 231.10038757 5.01617432 C262.67615113 14.93838294 288.34210009 38.69755981 303.52128601 67.64874268 C313.39967115 87.39441365 316.90627375 108.36951269 316.64677429 130.25396729 C315.73798523 130.41252197 314.82919617 130.57107666 313.89286804 130.73443604 C280.95711704 136.84866263 251.86617606 153.94729759 232.14677429 181.31646729 C216.19736146 204.6753129 209.53089888 228.91040361 209.46977234 257.02105713 C209.46348936 258.36790128 209.45684102 259.71474376 209.44985962 261.06158447 C209.42902796 265.44601279 209.41847429 269.83044062 209.40849304 274.21490479 C209.40443712 275.73839967 209.40031998 277.26189439 209.39614296 278.78538895 C209.37713407 285.95134594 209.36289635 293.11729295 209.35453099 300.28327024 C209.3447864 308.48986568 209.31852168 316.69618942 209.2780301 324.90268934 C209.24762794 331.28875118 209.23303943 337.6747362 209.22974998 344.06086886 C209.22742613 347.85484441 209.21882203 351.64852844 209.1932888 355.44242477 C209.01373784 383.61354099 212.00722125 409.11759556 226.36161804 433.88287354 C227.64677429 436.25396729 227.64677429 436.25396729 227.64677429 438.25396729 C226.89323984 438.25543385 226.13970539 438.25690041 225.36333656 438.25841141 C207.00027276 438.29551624 188.63739862 438.35457962 170.27448463 438.43787003 C161.39418371 438.47762364 152.51397092 438.51003477 143.6335907 438.52496338 C135.89047145 438.537999 128.14754644 438.56501226 120.4045366 438.60858035 C116.30732438 438.63115237 112.21035136 438.64688054 108.11307144 438.64585114 C104.25024767 438.64510198 100.38795181 438.66315395 96.52526474 438.69513512 C95.11366436 438.70359813 93.70200451 438.70540867 92.29039001 438.69976997 C82.35047322 438.66537812 73.38199999 439.26270001 66.02177429 446.56646729 C65.46489929 447.17748291 64.90802429 447.78849854 64.33427429 448.41802979 C62.65616056 450.24375538 60.90639737 451.83168507 59.02177429 453.44146729 C55.36533532 456.59479159 51.81193228 459.84669481 48.27177429 463.12896729 C43.60751133 467.45161661 38.90983145 471.73213486 34.17411804 475.97662354 C31.31595245 478.55206486 28.47965346 481.15080527 25.64677429 483.75396729 C22.0193394 487.08725478 18.37784353 490.40343035 14.70927429 493.69146729 C10.86760435 497.13975023 7.06237837 500.62483638 3.27177429 504.12896729 C2.72360046 504.63516602 2.17542664 505.14136475 1.61064148 505.66290283 C-1.09721165 508.16444713 -3.80081778 510.6703478 -6.49775696 513.18365479 C-11.18586713 517.54111175 -15.9187078 521.85266208 -20.79072571 526.00396729 C-21.55256165 526.65881104 -22.31439758 527.31365479 -23.09931946 527.98834229 C-25.35322571 529.25396729 -25.35322571 529.25396729 -28.01338196 529.14459229 C-30.35322571 528.25396729 -30.35322571 528.25396729 -32.35322571 525.25396729 C-32.54625107 522.3915344 -32.62299768 519.62541939 -32.6085968 516.76275635 C-32.61221725 515.89574097 -32.61583771 515.02872559 -32.61956787 514.13543701 C-32.62646458 512.25133568 -32.62896679 510.36721436 -32.6276207 508.48310089 C-32.62665635 505.498362 -32.6395879 502.51398415 -32.65660095 499.52929688 C-32.70289451 491.04269229 -32.72747096 482.55612342 -32.73408508 474.06939697 C-32.7391062 468.87865495 -32.76338994 463.68828795 -32.79941177 458.49767303 C-32.80919889 456.52180994 -32.81154767 454.54589516 -32.80624008 452.57001495 C-32.79915162 449.80052289 -32.81648937 447.03214338 -32.83906555 444.26275635 C-32.8308931 443.45106995 -32.82272064 442.63938354 -32.81430054 441.80310059 C-32.89559957 436.17864841 -34.16587776 432.90689484 -37.35322571 428.25396729 C-38.97447779 426.73594486 -38.97447779 426.73594486 -40.78681946 425.91802979 C-41.75023254 425.41263672 -41.75023254 425.41263672 -42.73310852 424.89703369 C-43.41212219 424.56107178 -44.09113586 424.22510986 -44.79072571 423.87896729 C-46.23471208 423.11297815 -47.6760904 422.34205416 -49.11494446 421.56646729 C-49.83085754 421.18232666 -50.54677063 420.79818604 -51.28437805 420.40240479 C-61.47395512 414.74607123 -70.01225933 407.28154475 -78.35322571 399.25396729 C-79.05963196 398.62232666 -79.76603821 397.99068604 -80.49385071 397.33990479 C-101.68376042 377.78661411 -113.19459678 346.20827365 -114.7219677 317.98472023 C-114.90362611 312.64436265 -114.88418455 307.30679492 -114.85493469 301.96417236 C-114.85873187 299.94251634 -114.86424328 297.92086294 -114.87130737 295.8992157 C-114.8850944 290.48194618 -114.87421304 285.06500024 -114.85759616 279.64774919 C-114.84358715 273.93654617 -114.85022334 268.22535897 -114.85372925 262.5141449 C-114.85641833 252.93298217 -114.84306628 243.35194566 -114.81977844 233.77081299 C-114.79315424 222.74165799 -114.79143385 211.71271346 -114.80316681 200.6835373 C-114.81399641 190.00694614 -114.80771849 179.33043007 -114.79361153 168.65384483 C-114.7878988 164.13959638 -114.78789679 159.62540372 -114.79267693 155.11115456 C-114.79749737 149.78469957 -114.78713837 144.45847111 -114.76572227 139.1320591 C-114.76022336 137.19367232 -114.75962436 135.25526346 -114.76467514 133.31687546 C-114.84850334 96.49007783 -104.14451899 64.12529797 -78.35322571 37.25396729 C-77.5114679 36.34904541 -76.66971008 35.44412354 -75.80244446 34.51177979 C-56.81486468 14.67236936 -27.88911314 -0.15430926 0 0 Z " fill="#5DBCAE" transform="translate(304.3532257080078,219.74603271484375)"/>
<path d="M0 0 C1.50171074 -0.00543848 3.00341613 -0.01257068 4.50511169 -0.02124023 C8.53636447 -0.03927515 12.56720184 -0.03248859 16.59846067 -0.01972389 C20.84923008 -0.00948828 25.0999675 -0.01901886 29.35073853 -0.02526855 C36.48698203 -0.03251617 43.62305918 -0.02303525 50.75927734 -0.00390625 C58.96582186 0.01784021 67.17196838 0.01081569 75.3785032 -0.01121187 C82.4686435 -0.02946878 89.55866522 -0.03187384 96.64882147 -0.0214572 C100.8639734 -0.01527621 105.07893944 -0.01423504 109.29407883 -0.02760315 C113.2621467 -0.03931173 117.22971084 -0.03086823 121.1977253 -0.00802612 C122.63866535 -0.00281716 124.07964915 -0.00411521 125.52057076 -0.01307678 C138.95600054 -0.08881572 152.91816882 1.77625452 164.83837891 8.39257812 C165.82668701 8.91573608 165.82668701 8.91573608 166.83496094 9.44946289 C189.02121501 21.3742325 204.16203219 39.68215729 211.77587891 63.64257812 C213.49326514 69.57256646 214.45919888 75.24645127 214.48554993 81.42619324 C214.49628288 83.16435051 214.49628288 83.16435051 214.50723267 84.93762207 C214.50992157 86.19530396 214.51261047 87.45298584 214.51538086 88.7487793 C214.52165366 90.09813102 214.52830118 91.44748104 214.53529358 92.79682922 C214.55625933 97.21805639 214.56669682 101.63928357 214.57666016 106.06054688 C214.58071211 107.59119496 214.58482915 109.12184288 214.58901024 110.65249062 C214.60805451 117.85476828 214.62228072 125.05703581 214.63062221 132.25933379 C214.6403575 140.52542935 214.66658243 148.79125449 214.7071231 157.05725497 C214.73749653 163.47460703 214.75211142 169.89188259 214.75540322 176.30930501 C214.75773188 180.12788224 214.76640019 183.94617046 214.7918644 187.76466942 C215.00076352 220.82649839 210.29538804 247.13903804 186.33837891 271.51757812 C185.72736328 272.1646875 185.11634766 272.81179688 184.48681641 273.47851562 C179.36548668 278.45953495 173.08930812 281.57469221 166.77172852 284.79150391 C161.16795695 287.72638587 157.24010337 290.7141292 154.33837891 296.51757812 C154.2230338 298.56934549 154.17142425 300.62480365 154.14892578 302.6796875 C154.12384949 304.62180115 154.12384949 304.62180115 154.0982666 306.60314941 C154.08824364 307.64388359 154.08824364 307.64388359 154.07801819 308.7056427 C154.05700659 310.87395019 154.02998314 313.04210789 154.00134277 315.21032715 C153.94162713 319.8126868 153.88947085 324.41511571 153.83837891 329.01757812 C153.77918651 334.34974542 153.71693132 339.68183852 153.64649963 345.01387024 C153.61988522 347.15322495 153.59909525 349.292587 153.57849121 351.43200684 C153.55341492 353.37412048 153.55341492 353.37412048 153.52783203 355.35546875 C153.51530396 356.49971313 153.50277588 357.64395752 153.48986816 358.82287598 C153.33837891 361.51757812 153.33837891 361.51757812 152.33837891 363.51757812 C149.33237818 364.00316286 147.19040982 364.08871183 144.60107422 362.35302734 C142.64965567 360.61659559 140.80135291 358.81125665 138.96337891 356.95507812 C137.54317908 355.57188245 136.12259521 354.189081 134.70166016 352.80664062 C133.97930176 352.09411133 133.25694336 351.38158203 132.51269531 350.64746094 C129.11280198 347.31704668 125.63155094 344.07560955 122.15087891 340.83007812 C120.81484508 339.5775767 119.47890614 338.32497405 118.14306641 337.07226562 C114.18213994 333.36624041 110.19885469 329.68494002 106.20751953 326.01171875 C102.65657078 322.7416856 99.12413912 319.45255758 95.59985352 316.15380859 C92.51768049 313.2697008 89.42992596 310.39163383 86.33837891 307.51757812 C85.82549316 307.040625 85.31260742 306.56367187 84.78417969 306.07226562 C83.43213351 304.81957401 82.07299928 303.57454491 80.71337891 302.33007812 C79.97861328 301.65589844 79.24384766 300.98171875 78.48681641 300.28710938 C72.3569383 295.23831886 67.5130919 294.37244983 59.74682617 294.34399414 C58.98683823 294.33730713 58.22685028 294.33062012 57.4438324 294.32373047 C55.79494885 294.30969879 54.14604609 294.29779876 52.49713326 294.28778267 C49.87618777 294.27130458 47.25538177 294.24805851 44.63450623 294.22288513 C37.18276001 294.15233726 29.73095378 294.09235745 22.27905273 294.04077148 C17.71613671 294.00870894 13.15337718 293.96735791 8.59058952 293.9205761 C6.86251624 293.90470594 5.13440694 293.89231658 3.40628242 293.8836689 C-24.73530082 293.7409346 -47.02705389 286.59846332 -67.27709961 266.33886719 C-82.53828522 250.41883726 -89.14389106 229.32547333 -89.06567383 207.73144531 C-89.07139119 206.28766863 -89.07836066 204.84389645 -89.08647156 203.40013123 C-89.10427164 199.51346153 -89.10325914 195.62701922 -89.09752917 191.74032116 C-89.09441683 188.47797502 -89.10055262 185.21567129 -89.10656792 181.95333123 C-89.12056963 174.2460319 -89.1190895 166.5388435 -89.10766602 158.83154297 C-89.09620085 150.92213236 -89.11024338 143.01306148 -89.13706249 135.10369563 C-89.15933338 128.27605985 -89.16583107 121.44852981 -89.15998608 114.62086034 C-89.15664093 110.5593802 -89.15886605 106.49811744 -89.17623711 102.4366684 C-89.1918863 98.61147253 -89.18755565 94.78677306 -89.16893196 90.96159554 C-89.16358312 88.91796684 -89.17762389 86.87431487 -89.19262695 84.83073425 C-89.09700577 72.59518868 -86.83053144 60.14764106 -80.97412109 49.26757812 C-80.6330835 48.61265381 -80.2920459 47.95772949 -79.94067383 47.28295898 C-68.68126005 26.31495152 -50.14198189 10.78684616 -27.5121212 3.50399017 C-18.234024 0.81617711 -9.69416191 -0.06010432 0 0 Z " fill="#5DBCAE" transform="translate(638.66162109375,384.482421875)"/>
<path d="M0 0 C5.65701907 2.56166901 8.51835637 7.069853 12 12 C24.55670081 29.0094316 40.6833664 40.631599 62 44 C84.24229864 45.79379763 104.04314382 41.52065678 121.9375 27.75 C128.51791071 22.03178166 133.36826463 15.05336438 138.08984375 7.78125 C140.49853098 4.27412259 143.19410184 1.90294908 147 0 C154.13897709 -0.72218508 159.26235486 -0.44960235 165 4 C169.13356539 9.33012379 170.47899102 13.26635807 170 20 C169.00560576 22.71820086 168.00767098 25.08092704 166.6875 27.625 C166.33284668 28.31795166 165.97819336 29.01090332 165.61279297 29.72485352 C153.08886353 53.12877905 129.53743539 68.35016829 104.77734375 76.19140625 C76.97959549 84.28442157 46.75809679 80.86484609 21.36328125 67.08129883 C15.15850157 63.57092117 9.42357077 59.63036115 4 55 C3.20207031 54.34644531 2.40414063 53.69289063 1.58203125 53.01953125 C-8.09613997 44.78183202 -20.29116608 31.97264798 -22.5 19.08203125 C-22.75172906 13.25293025 -22.0245876 9.45967815 -18 5 C-12.08090699 -0.21443908 -7.77854729 -0.76130463 0 0 Z " fill="#002336" transform="translate(329,456)"/>
<path d="M0 0 C6.03865218 2.77665128 8.87426536 8.88513901 12.203125 14.3203125 C18.80657643 24.16806833 30.60884617 29.79232104 41.890625 32.53125 C58.54088145 35.04133891 73.63292805 31.71157419 88 23 C94.16160648 18.31313868 98.05590269 12.19229473 102.04296875 5.63671875 C104.75901586 1.97737384 107.16756609 0.29607011 111.68359375 -0.43359375 C117.60679444 -0.44199545 121.44957354 -0.20914447 126 4 C129.31891653 7.76143874 129.57851263 11.47933219 129.40625 16.32421875 C128.04658254 25.27972079 121.78105086 32.3898837 116 39 C115.47921875 39.61617187 114.9584375 40.23234375 114.421875 40.8671875 C101.2130459 55.3435305 79.24101649 64.10695704 60 65 C58.86691406 65.05285156 57.73382812 65.10570312 56.56640625 65.16015625 C33.79218459 65.70522087 11.61862741 57.82610366 -4.93798828 42.07226562 C-21.14041759 26.19465566 -21.14041759 26.19465566 -21.5625 14.8125 C-21.3335766 9.8143391 -20.53815548 6.72940712 -17 3 C-11.55679951 -0.8653259 -6.48180257 -1.01844568 0 0 Z " fill="#002235" transform="translate(647,553)"/>
<path d="M0 0 C6.91883263 4.90947106 12.7366268 10.65167874 15 19 C16.05369964 27.7903231 15.80407991 36.34855812 11 44 C5.77076749 50.65223162 -0.6355331 55.30831007 -9 57 C-18.333071 57.90945261 -26.16048184 56.1255639 -33.75 50.5 C-40.0069511 44.510567 -43.21564569 37.12204688 -43.66210938 28.54370117 C-43.74767857 21.02430815 -42.93317855 14.91732276 -38 9 C-37.46890625 8.35675781 -36.9378125 7.71351563 -36.390625 7.05078125 C-27.14189546 -3.06766827 -12.42522852 -6.63524108 0 0 Z " fill="#002335" transform="translate(503,362)"/>
<path d="M0 0 C7.20131948 3.91039391 12.16938621 10.31012313 14.828125 18.078125 C16.32920977 27.06795489 16.04878009 36.30551136 11.1796875 44.18359375 C5.95911033 50.83636465 -0.46065922 55.49603757 -8.8203125 57.18359375 C-16.45321321 57.91683303 -22.17381207 57.0050162 -28.8203125 53.18359375 C-29.44808594 52.84457031 -30.07585937 52.50554687 -30.72265625 52.15625 C-36.89275145 48.36238402 -40.56491233 41.94979425 -42.8203125 35.18359375 C-43.68586121 24.29004503 -43.26567638 16.0167324 -36.2109375 7.1640625 C-26.68672554 -3.21208585 -12.81086257 -5.91428001 0 0 Z " fill="#002335" transform="translate(336.8203125,361.81640625)"/>
<path d="M0 0 C5.78982503 4.90075077 9.24151875 10.69063126 10.3125 18.1875 C10.71167327 25.37261894 7.94977167 30.70038641 4.375 36.75 C-0.95633554 41.80073893 -6.77742633 44.30207967 -14.125 44.5625 C-21.41676667 44.20726009 -26.32647831 42.07736303 -31.3125 36.75 C-36.13682055 30.54542425 -37.60319653 24.49851203 -37.34375 16.671875 C-36.47455905 9.91589077 -32.81020429 5.04543066 -27.91796875 0.4765625 C-19.3315348 -6.13376751 -9.03294064 -5.23734018 0 0 Z " fill="#012336" transform="translate(776,483)"/>
<path d="M0 0 C5.29703497 3.20640919 8.75631287 7.9870362 10.5859375 13.890625 C11.94878589 20.83343755 11.61316939 27.57611579 8.3984375 33.92578125 C5.25134434 38.59367642 1.17184661 41.88994507 -3.8125 44.4375 C-10.91626865 45.69110623 -17.74453186 46.11816732 -24.15234375 42.39453125 C-30.26164361 37.7834952 -35.17448091 31.6032108 -36.3125 23.87890625 C-36.73379863 16.2823654 -33.86905902 10.14021917 -29.3125 4.1875 C-21.19043599 -4.6096978 -10.30931464 -4.76255908 0 0 Z " fill="#002235" transform="translate(652,482)"/>
<path d="M0 0 C0 0.66 0 1.32 0 2 C-49.5 2 -99 2 -150 2 C-145.98306204 -0.00846898 -144.40283957 -0.25714156 -140.06564331 -0.28520203 C-138.85139679 -0.29781067 -137.63715027 -0.31041931 -136.3861084 -0.32341003 C-135.04370172 -0.32736963 -133.70129445 -0.33113194 -132.35888672 -0.3347168 C-130.9428339 -0.3456542 -129.52678746 -0.35744513 -128.11074829 -0.37002563 C-124.26801901 -0.40160831 -120.42531689 -0.42086529 -116.58249807 -0.43764853 C-112.56351011 -0.4570011 -108.54459787 -0.48672664 -104.52566528 -0.51509094 C-97.77869379 -0.56114861 -91.03171285 -0.59954955 -84.28466797 -0.63305664 C-76.47744676 -0.67188852 -68.67034717 -0.72116245 -60.86322582 -0.77638692 C-53.3582476 -0.82937124 -45.85324539 -0.87657289 -38.34820938 -0.92057228 C-35.15126427 -0.9393228 -31.95433741 -0.95982544 -28.75741196 -0.98166466 C-24.99657244 -1.0069811 -21.23573946 -1.02715379 -17.4748497 -1.043293 C-16.09210254 -1.05001588 -14.70936258 -1.05846887 -13.32663727 -1.06874657 C-11.44458291 -1.0824356 -9.56248246 -1.08928764 -7.6803894 -1.0957489 C-6.62552275 -1.1014474 -5.57065609 -1.1071459 -4.48382378 -1.11301708 C-2 -1 -2 -1 0 0 Z " fill="#61C2B5" transform="translate(532,656)"/>
<path d="M0 0 C0.33 0.66 0.66 1.32 1 2 C1.66 2 2.32 2 3 2 C3 32.03 3 62.06 3 93 C-0.38030453 89.61969547 -0.3484609 88.49388204 -0.3732605 83.91522217 C-0.36247467 83.08444153 -0.35168884 82.25366089 -0.34057617 81.39770508 C-0.34101425 80.51944565 -0.34145233 79.64118622 -0.34190369 78.73631287 C-0.33981201 75.83049363 -0.31646306 72.92524982 -0.29296875 70.01953125 C-0.28737415 68.00599991 -0.28310341 65.99246449 -0.28010559 63.97892761 C-0.26864616 58.676979 -0.23916945 53.37527657 -0.20599365 48.07342529 C-0.17531647 42.66421845 -0.16160528 37.25497187 -0.14648438 31.84570312 C-0.11430088 21.23036053 -0.06309119 10.61520073 0 0 Z " fill="#59B3A8" transform="translate(272,655)"/>
<path d="M0 0 C0 3.58179266 -0.84502896 4.5576607 -2.875 7.4375 C-4.44252183 9.6751942 -5.87862126 11.73230812 -7.0078125 14.22265625 C-8 16 -8 16 -11 17 C-12.37195574 18.29355827 -13.71182656 19.62298702 -15 21 C-15 16.63840788 -12.38248565 14.30789262 -9.75 11.0625 C-9.25886719 10.44181641 -8.76773438 9.82113281 -8.26171875 9.18164062 C-5.66671253 5.93269284 -3.02063577 2.86960398 0 0 Z " fill="#F35722" transform="translate(112,134)"/>
<path d="M0 0 C3.71304183 3.3116319 5.88899839 6.9477304 8.25 11.25 C8.61351562 11.8996875 8.97703125 12.549375 9.3515625 13.21875 C10.24033459 14.80918426 11.12099936 16.40414448 12 18 C11.01 18 10.02 18 9 18 C8.319375 16.5459375 8.319375 16.5459375 7.625 15.0625 C6.34213779 11.92920418 6.34213779 11.92920418 4 11 C2.30617813 7.40909763 0.78089545 3.90447725 0 0 Z " fill="#101A37" transform="translate(628,253)"/>
<path d="M0 0 C0.66 0.33 1.32 0.66 2 1 C1.67 5.29 1.34 9.58 1 14 C-1 12 -1 12 -1.23046875 9.43359375 C-1.21628906 8.44488281 -1.20210937 7.45617187 -1.1875 6.4375 C-1.18105469 5.44621094 -1.17460938 4.45492188 -1.16796875 3.43359375 C-1 1 -1 1 0 0 Z " fill="#03172A" transform="translate(740,496)"/>
<path d="M0 0 C1.20017115 3.9605648 0.66319352 6.17465491 -1 10 C-1.99 10.66 -2.98 11.32 -4 12 C-4 8.76344816 -3.3449153 7.21247361 -2 4.3125 C-1.62875 3.50425781 -1.2575 2.69601562 -0.875 1.86328125 C-0.58625 1.24839844 -0.2975 0.63351562 0 0 Z " fill="#E36E34" transform="translate(825,758)"/>
<path d="M0 0 C0 3.3 0 6.6 0 10 C-0.99 9.67 -1.98 9.34 -3 9 C-3 6.36 -3 3.72 -3 1 C-1 0 -1 0 0 0 Z " fill="#F57443" transform="translate(62,756)"/>
<path d="M0 0 C0.66 0.33 1.32 0.66 2 1 C-2.625 6.875 -2.625 6.875 -6 8 C-4.55746343 4.63408134 -2.66735273 2.48952921 0 0 Z " fill="#03192B" transform="translate(552,382)"/>
<path d="M0 0 C0.33 0.66 0.66 1.32 1 2 C0.0625 4.125 0.0625 4.125 -1 6 C-1.66 6 -2.32 6 -3 6 C-3.33 6.99 -3.66 7.98 -4 9 C-4.66 8.67 -5.32 8.34 -6 8 C-4.02 5.36 -2.04 2.72 0 0 Z " fill="#021224" transform="translate(466,466)"/>
<path d="M0 0 C2.31 0 4.62 0 7 0 C7 0.99 7 1.98 7 3 C5.02 3 3.04 3 1 3 C0.67 2.01 0.34 1.02 0 0 Z " fill="#55ADA3" transform="translate(623,385)"/>
</svg>
